<svg width="20" height="20" viewBox="0 0 20 20" fill="none" xmlns="http://www.w3.org/2000/svg"><path fill-rule="evenodd" clip-rule="evenodd" d="M10.024 1.667c-3.84-.013-6.978 3.043-7.103 6.868l-.004.237a8.946 8.946 0 0 0 1.825 5.134l.264.345a17.301 17.301 0 0 0 3.778 3.547l.344.232.05.04a1.41 1.41 0 0 0 1.643 0l.042-.035a17.605 17.605 0 0 0 3.12-2.579c1.907-2.018 3.057-4.28 3.1-6.577v-.085c.013-3.85-3.033-6.998-6.846-7.123l-.213-.004ZM10.02 2.93c3.149.011 5.705 2.527 5.8 5.66l.003.276c-.037 1.926-1.045 3.91-2.75 5.716a16.334 16.334 0 0 1-2.903 2.396l-.07.053a.151.151 0 0 1-.2 0l-.068-.052a16.045 16.045 0 0 1-4.085-3.837 7.67 7.67 0 0 1-1.554-4.096l-.016-.297c.011-3.156 2.52-5.72 5.643-5.816l.2-.003ZM10 6.168a2.703 2.703 0 0 0-2.699 2.707A2.703 2.703 0 0 0 10 11.58a2.703 2.703 0 0 0 2.698-2.706A2.703 2.703 0 0 0 10 6.168Zm0 1.264a1.44 1.44 0 0 1 1.438 1.443A1.44 1.44 0 0 1 10 10.317a1.44 1.44 0 0 1-1.438-1.442A1.44 1.44 0 0 1 10 7.432Z" fill="#FECE00"/><path d="m2.92 8.535-.5-.017v.008l.5.009Zm7.104-6.868.01-.5h-.008l-.002.5ZM2.917 8.772l-.5-.008v.025l.5-.017Zm1.825 5.134-.398.304h.001l.397-.304Zm.264.345-.397.304.004.005.393-.31Zm3.778 3.547-.284.411.004.003.28-.414Zm.344.232.309-.394-.014-.011-.016-.01-.279.415Zm.05.04-.308.392.008.007.009.006.291-.406Zm1.643 0 .292.405.013-.01.013-.01-.317-.386Zm.042-.035-.272-.42-.023.016-.022.017.317.387Zm3.12-2.579.361.346.003-.002-.363-.344Zm3.1-6.577.5.01v-.01h-.5Zm0-.085-.5-.002v.001l.5.001Zm-6.846-7.123.016-.5h-.007l-.01.5Zm5.583 6.92.5-.005v-.01l-.5.015Zm-5.8-5.66.001-.5h-.008l.007.5Zm5.803 5.936.5.01v-.015l-.5.005Zm-2.75 5.716.36.346.003-.003-.364-.343Zm-2.903 2.396-.272-.42-.015.01-.014.01.3.4Zm-.07.053-.301-.4-.014.01-.014.012.328.378Zm-.2 0 .328-.378-.012-.011-.014-.01-.301.399Zm-.068-.052.301-.399-.013-.01-.014-.01-.274.42Zm-4.085-3.837.4-.299-.003-.004-.397.303ZM4.193 9.047l-.5.027.002.01.498-.037Zm-.016-.297-.5-.002v.014l.001.015.5-.027ZM9.82 2.934l-.007-.5h-.009l.016.5Zm-6.4 5.617c.117-3.557 3.034-6.396 6.602-6.384l.004-1C5.912 1.153 2.555 4.425 2.42 8.518l1 .033Zm-.003.23.003-.238-1-.017-.003.238 1 .016Zm1.722 4.822a8.446 8.446 0 0 1-1.723-4.848l-.999.034a9.447 9.447 0 0 0 1.927 5.42l.795-.606Zm.264.344-.264-.345-.794.609.264.344.794-.608Zm3.664 3.439A16.801 16.801 0 0 1 5.4 13.942l-.786.618A17.799 17.799 0 0 0 8.5 18.21l.567-.824Zm.34.229-.344-.232-.559.83.345.231.558-.83Zm.08.06-.05-.039-.618.787.05.04.618-.787Zm1.043-.012a.909.909 0 0 1-1.06 0l-.583.812a1.909 1.909 0 0 0 2.226 0l-.583-.812Zm.016-.015-.042.035.635.772.042-.034-.635-.773Zm3.077-2.538c-.911.95-1.928 1.79-3.032 2.505l.544.84a18.1 18.1 0 0 0 3.21-2.653l-.722-.692Zm2.96-6.24c-.04 2.133-1.11 4.281-2.963 6.243l.727.687c1.96-2.076 3.19-4.45 3.236-6.911l-1-.02Zm0-.077v.086h1v-.084l-1-.002ZM10.22 2.17c3.543.117 6.375 3.042 6.363 6.622l1 .004c.014-4.12-3.246-7.49-7.33-7.625l-.033 1Zm-.205-.003.213.004.018-1-.213-.004-.018 1Zm6.305 6.409c-.103-3.4-2.878-6.133-6.299-6.145l-.003 1c2.877.01 5.215 2.31 5.302 5.175l1-.03Zm.003.286-.003-.276-1 .01.003.276 1-.01Zm-2.887 6.064c1.756-1.859 2.847-3.956 2.887-6.05l-1-.018c-.034 1.758-.959 3.629-2.614 5.381l.727.687Zm-2.995 2.472a16.84 16.84 0 0 0 2.992-2.469l-.722-.693a15.833 15.833 0 0 1-2.813 2.323l.543.84Zm-.041.033.07-.053-.6-.799-.071.053.6.8Zm-.827-.022a.651.651 0 0 0 .854 0l-.656-.755a.349.349 0 0 1 .457 0l-.655.755Zm-.042-.03.069.052.602-.798-.069-.052-.602.798Zm-4.185-3.937A16.544 16.544 0 0 0 9.56 17.4l.547-.838a15.546 15.546 0 0 1-3.958-3.717l-.802.598ZM3.695 9.084a8.17 8.17 0 0 0 1.654 4.363l.795-.607a7.17 7.17 0 0 1-1.452-3.83l-.997.073Zm-.017-.307.016.297.999-.053-.016-.298-.999.054Zm6.126-6.343c-3.393.104-6.115 2.889-6.127 6.314l1 .004c.01-2.888 2.304-5.231 5.158-5.318l-.03-1Zm.209-.003-.2.003.013 1 .2-.003-.013-1ZM7.801 8.875c0-1.22.986-2.207 2.199-2.207v-1a3.203 3.203 0 0 0-3.199 3.207h1ZM10 11.08a2.203 2.203 0 0 1-2.199-2.206h-1A3.202 3.202 0 0 0 10 12.08v-1Zm2.198-2.206c0 1.22-.985 2.206-2.198 2.206v1a3.203 3.203 0 0 0 3.198-3.206h-1ZM10 6.668c1.213 0 2.198.986 2.198 2.207h1c0-1.77-1.43-3.207-3.198-3.207v1Zm1.938 2.207A1.94 1.94 0 0 0 10 6.932v1a.94.94 0 0 1 .938.943h1ZM10 10.817a1.94 1.94 0 0 0 1.938-1.942h-1a.94.94 0 0 1-.938.942v1ZM8.062 8.875A1.94 1.94 0 0 0 10 10.817v-1a.94.94 0 0 1-.938-.942h-1ZM10 6.932a1.94 1.94 0 0 0-1.938 1.943h1A.94.94 0 0 1 10 7.932v-1Z" fill="#FECE00"/></svg>