<svg width="18" height="18" viewBox="0 0 18 18" fill="none" xmlns="http://www.w3.org/2000/svg"><mask id="a" maskUnits="userSpaceOnUse" x=".5" y=".5" width="17" height="17" fill="#000"><path fill="#fff" d="M.5.5h17v17H.5z"/><path fill-rule="evenodd" clip-rule="evenodd" d="M8.709 1.5C4.727 1.5 1.5 4.656 1.5 8.55c0 3.893 3.227 7.049 7.209 7.049a7.28 7.28 0 0 0 4.5-1.543l2.344 2.286.062.052c.218.157.526.14.723-.053a.534.534 0 0 0-.001-.768l-2.316-2.259a6.94 6.94 0 0 0 1.896-4.765c0-3.893-3.227-7.049-7.208-7.049Zm0 1.086c3.368 0 6.098 2.67 6.098 5.963 0 3.294-2.73 5.964-6.098 5.964S2.61 11.843 2.61 8.55s2.73-5.963 6.099-5.963Z"/></mask><path fill-rule="evenodd" clip-rule="evenodd" d="M8.709 1.5C4.727 1.5 1.5 4.656 1.5 8.55c0 3.893 3.227 7.049 7.209 7.049a7.28 7.28 0 0 0 4.5-1.543l2.344 2.286.062.052c.218.157.526.14.723-.053a.534.534 0 0 0-.001-.768l-2.316-2.259a6.94 6.94 0 0 0 1.896-4.765c0-3.893-3.227-7.049-7.208-7.049Zm0 1.086c3.368 0 6.098 2.67 6.098 5.963 0 3.294-2.73 5.964-6.098 5.964S2.61 11.843 2.61 8.55s2.73-5.963 6.099-5.963Z" fill="#FECE00"/><path d="m13.21 14.056.698-.716-.626-.61-.689.539.617.787Zm2.343 2.286-.698.715.026.026.028.023.644-.765Zm.062.052-.644.765.028.024.03.021.586-.81Zm.723-.053-.7-.715.7.714Zm-.001-.768-.698.716.698-.716Zm-2.316-2.259-.729-.684-.671.715.702.685.698-.716ZM2.5 8.55c0-3.32 2.759-6.05 6.209-6.05v-2C4.196.5.5 4.083.5 8.55h2Zm6.209 6.05c-3.45 0-6.209-2.73-6.209-6.05h-2c0 4.467 3.696 8.05 8.209 8.05v-2Zm3.884-1.33a6.28 6.28 0 0 1-3.884 1.33v2a8.28 8.28 0 0 0 5.117-1.755l-1.233-1.575Zm3.658 2.357-2.343-2.286-1.396 1.432 2.343 2.285 1.396-1.431Zm.008.003-.062-.053-1.288 1.53.062.053 1.288-1.53Zm-.621-.003a.436.436 0 0 1 .563-.042l-1.172 1.62a1.565 1.565 0 0 0 2.009-.15l-1.4-1.428Zm0 .663a.466.466 0 0 1 0-.663l1.4 1.429a1.534 1.534 0 0 0-.003-2.198l-1.396 1.432Zm-2.315-2.259 2.316 2.259 1.396-1.432-2.315-2.259-1.397 1.432Zm1.594-5.48a5.94 5.94 0 0 1-1.625 4.08l1.459 1.368a7.94 7.94 0 0 0 2.166-5.449h-2ZM8.71 2.5c3.45 0 6.208 2.73 6.208 6.05h2C16.917 4.082 13.221.5 8.71.5v2Zm7.098 6.05c0-3.867-3.2-6.964-7.098-6.964v2c2.837 0 5.098 2.243 5.098 4.963h2ZM8.71 15.513c3.899 0 7.098-3.097 7.098-6.964h-2c0 2.72-2.261 4.964-5.098 4.964v2ZM1.61 8.55c0 3.867 3.2 6.964 7.099 6.964v-2c-2.837 0-5.099-2.243-5.099-4.964h-2Zm7.1-6.964c-3.9 0-7.099 3.097-7.099 6.963h2c0-2.72 2.262-4.963 5.099-4.963v-2Z" fill="#FECE00" mask="url(#a)"/></svg>